<mxfile host="65bd71144e">
    <diagram id="sgqy0U5VhxCxPnF3bILq" name="第 1 页">
        <mxGraphModel dx="2841" dy="790" grid="1" gridSize="10" guides="0" tooltips="1" connect="1" arrows="1" fold="1" page="1" pageScale="1" pageWidth="827" pageHeight="1169" math="0" shadow="0">
            <root>
                <mxCell id="0"/>
                <mxCell id="1" parent="0"/>
                <mxCell id="iyWC9JM9I8k5CofvmZy0-3" value="" style="edgeStyle=orthogonalEdgeStyle;rounded=0;orthogonalLoop=1;jettySize=auto;labelBackgroundColor=none;fontSize=12;" parent="1" source="fZAHR_hkGAWxYGIb-MH3-1" target="iyWC9JM9I8k5CofvmZy0-2" edge="1">
                    <mxGeometry relative="1" as="geometry">
                        <Array as="points">
                            <mxPoint x="-122" y="130"/>
                            <mxPoint x="-122" y="130"/>
                        </Array>
                    </mxGeometry>
                </mxCell>
                <mxCell id="fZAHR_hkGAWxYGIb-MH3-1" value="youlai-lab&#10;有来实验室" style="ellipse;whiteSpace=wrap;labelBackgroundColor=none;fontSize=12;" parent="1" vertex="1">
                    <mxGeometry x="-177" y="10" width="110" height="50" as="geometry"/>
                </mxCell>
                <mxCell id="iyWC9JM9I8k5CofvmZy0-1" value="TM" style="rounded=0;whiteSpace=wrap;fillColor=#ffe6cc;strokeColor=#d79b00;labelBackgroundColor=none;fontSize=12;" parent="1" vertex="1">
                    <mxGeometry x="-77" y="25" width="20" height="20" as="geometry"/>
                </mxCell>
                <mxCell id="iyWC9JM9I8k5CofvmZy0-6" value="" style="edgeStyle=orthogonalEdgeStyle;rounded=0;orthogonalLoop=1;jettySize=auto;labelBackgroundColor=none;fontSize=12;" parent="1" source="iyWC9JM9I8k5CofvmZy0-2" target="iyWC9JM9I8k5CofvmZy0-5" edge="1">
                    <mxGeometry relative="1" as="geometry"/>
                </mxCell>
                <mxCell id="iyWC9JM9I8k5CofvmZy0-36" value="" style="edgeStyle=orthogonalEdgeStyle;curved=1;rounded=0;orthogonalLoop=1;jettySize=auto;labelBackgroundColor=none;fontSize=12;fontColor=#000000;" parent="1" source="iyWC9JM9I8k5CofvmZy0-2" target="iyWC9JM9I8k5CofvmZy0-7" edge="1">
                    <mxGeometry relative="1" as="geometry"/>
                </mxCell>
                <mxCell id="iyWC9JM9I8k5CofvmZy0-56" value="Text" style="edgeLabel;html=1;align=center;verticalAlign=middle;resizable=0;points=[];fontSize=12;fontColor=#000000;" parent="iyWC9JM9I8k5CofvmZy0-36" vertex="1" connectable="0">
                    <mxGeometry x="-0.2662" y="1" relative="1" as="geometry">
                        <mxPoint as="offset"/>
                    </mxGeometry>
                </mxCell>
                <mxCell id="iyWC9JM9I8k5CofvmZy0-57" value="读取" style="edgeLabel;html=1;align=center;verticalAlign=middle;resizable=0;points=[];fontSize=12;fontColor=#000000;" parent="iyWC9JM9I8k5CofvmZy0-36" vertex="1" connectable="0">
                    <mxGeometry x="-0.2248" y="-1" relative="1" as="geometry">
                        <mxPoint as="offset"/>
                    </mxGeometry>
                </mxCell>
                <mxCell id="iyWC9JM9I8k5CofvmZy0-2" value="SeataAutoConfiguration" style="rounded=0;whiteSpace=wrap;labelBackgroundColor=none;fontSize=12;" parent="1" vertex="1">
                    <mxGeometry x="-197" y="150" width="150" height="60" as="geometry"/>
                </mxCell>
                <mxCell id="iyWC9JM9I8k5CofvmZy0-11" value="" style="edgeStyle=orthogonalEdgeStyle;rounded=0;orthogonalLoop=1;jettySize=auto;entryX=0.5;entryY=0;entryDx=0;entryDy=0;labelBackgroundColor=none;fontSize=12;" parent="1" source="iyWC9JM9I8k5CofvmZy0-5" target="iyWC9JM9I8k5CofvmZy0-9" edge="1">
                    <mxGeometry relative="1" as="geometry"/>
                </mxCell>
                <mxCell id="iyWC9JM9I8k5CofvmZy0-12" value="" style="edgeStyle=orthogonalEdgeStyle;rounded=0;orthogonalLoop=1;jettySize=auto;exitX=0.5;exitY=1;exitDx=0;exitDy=0;entryX=0.5;entryY=0;entryDx=0;entryDy=0;labelBackgroundColor=none;fontSize=12;" parent="1" source="iyWC9JM9I8k5CofvmZy0-5" target="iyWC9JM9I8k5CofvmZy0-10" edge="1">
                    <mxGeometry relative="1" as="geometry">
                        <Array as="points">
                            <mxPoint x="-122" y="375"/>
                            <mxPoint x="38" y="375"/>
                        </Array>
                    </mxGeometry>
                </mxCell>
                <mxCell id="iyWC9JM9I8k5CofvmZy0-13" value="实现Spring接口" style="edgeLabel;align=center;verticalAlign=middle;resizable=0;points=[];labelBackgroundColor=none;fontSize=12;" parent="iyWC9JM9I8k5CofvmZy0-12" vertex="1" connectable="0">
                    <mxGeometry x="-0.6681" y="-2" relative="1" as="geometry">
                        <mxPoint as="offset"/>
                    </mxGeometry>
                </mxCell>
                <mxCell id="iyWC9JM9I8k5CofvmZy0-5" value="GlobalTransactionScanner" style="rounded=0;whiteSpace=wrap;labelBackgroundColor=none;fontSize=12;" parent="1" vertex="1">
                    <mxGeometry x="-202" y="260" width="160" height="60" as="geometry"/>
                </mxCell>
                <mxCell id="iyWC9JM9I8k5CofvmZy0-7" value="Nacos配置" style="rounded=0;whiteSpace=wrap;labelBackgroundColor=none;fontSize=12;" parent="1" vertex="1">
                    <mxGeometry x="98" y="150" width="120" height="60" as="geometry"/>
                </mxCell>
                <mxCell id="iyWC9JM9I8k5CofvmZy0-16" value="" style="edgeStyle=orthogonalEdgeStyle;rounded=0;orthogonalLoop=1;jettySize=auto;labelBackgroundColor=none;fontSize=12;" parent="1" source="iyWC9JM9I8k5CofvmZy0-9" target="iyWC9JM9I8k5CofvmZy0-15" edge="1">
                    <mxGeometry relative="1" as="geometry"/>
                </mxCell>
                <mxCell id="iyWC9JM9I8k5CofvmZy0-9" value="AbstractAutoProxyCreator" style="rounded=0;whiteSpace=wrap;labelBackgroundColor=none;fontSize=12;" parent="1" vertex="1">
                    <mxGeometry x="-337" y="430" width="175" height="60" as="geometry"/>
                </mxCell>
                <mxCell id="iyWC9JM9I8k5CofvmZy0-17" value="" style="edgeStyle=orthogonalEdgeStyle;rounded=0;orthogonalLoop=1;jettySize=auto;labelBackgroundColor=none;fontSize=12;" parent="1" source="iyWC9JM9I8k5CofvmZy0-10" target="iyWC9JM9I8k5CofvmZy0-14" edge="1">
                    <mxGeometry relative="1" as="geometry"/>
                </mxCell>
                <mxCell id="iyWC9JM9I8k5CofvmZy0-10" value="InitializingBean" style="rounded=0;whiteSpace=wrap;labelBackgroundColor=none;fontSize=12;" parent="1" vertex="1">
                    <mxGeometry x="-57" y="430" width="190" height="60" as="geometry"/>
                </mxCell>
                <mxCell id="iyWC9JM9I8k5CofvmZy0-14" value="afterPropertiesSet" style="rounded=0;whiteSpace=wrap;verticalAlign=top;labelBackgroundColor=none;fontSize=12;" parent="1" vertex="1">
                    <mxGeometry x="-57" y="530" width="190" height="110" as="geometry"/>
                </mxCell>
                <mxCell id="iyWC9JM9I8k5CofvmZy0-15" value="postProcessAfterInitialization" style="rounded=0;whiteSpace=wrap;verticalAlign=top;labelBackgroundColor=none;fontSize=12;" parent="1" vertex="1">
                    <mxGeometry x="-348.25" y="530" width="197.5" height="110" as="geometry"/>
                </mxCell>
                <mxCell id="iyWC9JM9I8k5CofvmZy0-27" value="" style="edgeStyle=orthogonalEdgeStyle;rounded=0;orthogonalLoop=1;jettySize=auto;entryX=0.5;entryY=0;entryDx=0;entryDy=0;labelBackgroundColor=none;fontSize=12;" parent="1" source="iyWC9JM9I8k5CofvmZy0-18" target="iyWC9JM9I8k5CofvmZy0-21" edge="1">
                    <mxGeometry relative="1" as="geometry"/>
                </mxCell>
                <mxCell id="iyWC9JM9I8k5CofvmZy0-33" value="" style="edgeStyle=orthogonalEdgeStyle;rounded=0;orthogonalLoop=1;jettySize=auto;curved=1;labelBackgroundColor=none;fontSize=12;entryX=0;entryY=0;entryDx=210;entryDy=40;entryPerimeter=0;dashed=1;" parent="1" source="iyWC9JM9I8k5CofvmZy0-18" target="iyWC9JM9I8k5CofvmZy0-32" edge="1">
                    <mxGeometry relative="1" as="geometry">
                        <mxPoint x="-410" y="630" as="targetPoint"/>
                    </mxGeometry>
                </mxCell>
                <mxCell id="iyWC9JM9I8k5CofvmZy0-18" value="wrapIfNecessary" style="rounded=0;whiteSpace=wrap;verticalAlign=middle;labelBackgroundColor=none;fontSize=12;" parent="1" vertex="1">
                    <mxGeometry x="-309.5" y="590" width="120" height="30" as="geometry"/>
                </mxCell>
                <mxCell id="iyWC9JM9I8k5CofvmZy0-30" value="" style="edgeStyle=orthogonalEdgeStyle;rounded=0;orthogonalLoop=1;jettySize=auto;exitX=0.5;exitY=1;exitDx=0;exitDy=0;labelBackgroundColor=none;fontSize=12;" parent="1" source="iyWC9JM9I8k5CofvmZy0-19" target="iyWC9JM9I8k5CofvmZy0-29" edge="1">
                    <mxGeometry relative="1" as="geometry"/>
                </mxCell>
                <mxCell id="iyWC9JM9I8k5CofvmZy0-31" value="" style="edgeStyle=orthogonalEdgeStyle;rounded=0;orthogonalLoop=1;jettySize=auto;exitX=0.5;exitY=1;exitDx=0;exitDy=0;labelBackgroundColor=none;fontSize=12;" parent="1" source="iyWC9JM9I8k5CofvmZy0-19" target="iyWC9JM9I8k5CofvmZy0-28" edge="1">
                    <mxGeometry relative="1" as="geometry"/>
                </mxCell>
                <mxCell id="iyWC9JM9I8k5CofvmZy0-19" value="initClient" style="rounded=0;whiteSpace=wrap;verticalAlign=middle;labelBackgroundColor=none;fontSize=12;" parent="1" vertex="1">
                    <mxGeometry x="-22" y="590" width="120" height="30" as="geometry"/>
                </mxCell>
                <mxCell id="iyWC9JM9I8k5CofvmZy0-21" value="seataServiceImpl代理对象" style="rounded=0;whiteSpace=wrap;verticalAlign=top;labelBackgroundColor=none;fontSize=12;" parent="1" vertex="1">
                    <mxGeometry x="-370" y="690" width="241" height="120" as="geometry"/>
                </mxCell>
                <mxCell id="iyWC9JM9I8k5CofvmZy0-23" value="GlobalTransactionalInterceptor" style="rounded=0;whiteSpace=wrap;verticalAlign=middle;labelBackgroundColor=none;fontSize=12;" parent="1" vertex="1">
                    <mxGeometry x="-348.25" y="740" width="200" height="45" as="geometry"/>
                </mxCell>
                <mxCell id="iyWC9JM9I8k5CofvmZy0-28" value="RMClient" style="rounded=0;whiteSpace=wrap;verticalAlign=middle;labelBackgroundColor=none;fontSize=12;" parent="1" vertex="1">
                    <mxGeometry x="-106" y="725" width="120" height="60" as="geometry"/>
                </mxCell>
                <mxCell id="iyWC9JM9I8k5CofvmZy0-29" value="TMClient" style="rounded=0;whiteSpace=wrap;verticalAlign=middle;labelBackgroundColor=none;fontSize=12;" parent="1" vertex="1">
                    <mxGeometry x="60" y="725" width="120" height="60" as="geometry"/>
                </mxCell>
                <mxCell id="iyWC9JM9I8k5CofvmZy0-32" value="把被标注@GlobalTransactional注解所在的类生成代理对象，并织入拦截器globalTransactionalInterceptor" style="shape=note;strokeWidth=1;fontSize=12;size=20;whiteSpace=wrap;fillColor=#ffe6cc;strokeColor=#d79b00;verticalAlign=middle;labelBackgroundColor=none;sketch=1;dashed=1;shadow=0;" parent="1" vertex="1">
                    <mxGeometry x="-590" y="560" width="210" height="60" as="geometry"/>
                </mxCell>
                <mxCell id="iyWC9JM9I8k5CofvmZy0-42" value="" style="rounded=0;orthogonalLoop=1;jettySize=auto;labelBackgroundColor=none;fontSize=12;fontColor=#000000;" parent="1" source="iyWC9JM9I8k5CofvmZy0-38" target="iyWC9JM9I8k5CofvmZy0-41" edge="1">
                    <mxGeometry relative="1" as="geometry">
                        <Array as="points"/>
                    </mxGeometry>
                </mxCell>
                <mxCell id="iyWC9JM9I8k5CofvmZy0-38" value="SeataServiceImpl#payOrder()" style="rounded=0;whiteSpace=wrap;shadow=0;labelBackgroundColor=none;sketch=0;fontSize=12;fontColor=#000000;strokeWidth=1;gradientColor=none;verticalAlign=middle;" parent="1" vertex="1">
                    <mxGeometry x="250" y="810" width="300" height="40" as="geometry"/>
                </mxCell>
                <mxCell id="iyWC9JM9I8k5CofvmZy0-46" value="" style="edgeStyle=none;rounded=0;orthogonalLoop=1;jettySize=auto;labelBackgroundColor=none;fontSize=12;fontColor=#000000;entryX=0.5;entryY=0;entryDx=0;entryDy=0;" parent="1" source="iyWC9JM9I8k5CofvmZy0-41" target="iyWC9JM9I8k5CofvmZy0-50" edge="1">
                    <mxGeometry relative="1" as="geometry">
                        <mxPoint x="401.07" y="990" as="targetPoint"/>
                    </mxGeometry>
                </mxCell>
                <mxCell id="iyWC9JM9I8k5CofvmZy0-41" value="GlobalTransactionalInterceptor.invoke()" style="rounded=0;whiteSpace=wrap;shadow=0;labelBackgroundColor=none;sketch=0;fontSize=12;fontColor=#000000;strokeWidth=1;gradientColor=none;verticalAlign=middle;" parent="1" vertex="1">
                    <mxGeometry x="273.57" y="920" width="255" height="40" as="geometry"/>
                </mxCell>
                <mxCell id="iyWC9JM9I8k5CofvmZy0-40" value="" style="edgeStyle=orthogonalEdgeStyle;curved=1;rounded=0;orthogonalLoop=1;jettySize=auto;labelBackgroundColor=none;fontSize=12;fontColor=#000000;entryX=0;entryY=0.5;entryDx=0;entryDy=0;exitX=0;exitY=0.5;exitDx=0;exitDy=0;" parent="1" source="iyWC9JM9I8k5CofvmZy0-23" target="iyWC9JM9I8k5CofvmZy0-41" edge="1">
                    <mxGeometry relative="1" as="geometry">
                        <mxPoint x="-100" y="1010" as="targetPoint"/>
                        <Array as="points">
                            <mxPoint x="-348" y="940"/>
                        </Array>
                    </mxGeometry>
                </mxCell>
                <mxCell id="iyWC9JM9I8k5CofvmZy0-53" value="" style="edgeStyle=none;rounded=0;orthogonalLoop=1;jettySize=auto;html=0;labelBackgroundColor=none;fontSize=12;fontColor=#000000;entryX=0.5;entryY=0;entryDx=0;entryDy=0;" parent="1" source="iyWC9JM9I8k5CofvmZy0-50" target="iyWC9JM9I8k5CofvmZy0-90" edge="1">
                    <mxGeometry relative="1" as="geometry">
                        <mxPoint x="412.00999999999976" y="1150" as="targetPoint"/>
                    </mxGeometry>
                </mxCell>
                <mxCell id="iyWC9JM9I8k5CofvmZy0-54" value="存在" style="edgeLabel;html=1;align=center;verticalAlign=middle;resizable=0;points=[];fontSize=12;fontColor=#000000;" parent="iyWC9JM9I8k5CofvmZy0-53" vertex="1" connectable="0">
                    <mxGeometry x="-0.3156" y="1" relative="1" as="geometry">
                        <mxPoint as="offset"/>
                    </mxGeometry>
                </mxCell>
                <mxCell id="iyWC9JM9I8k5CofvmZy0-50" value="判断payOrder方法是否存在&#10;@GlobalTransactional注解" style="rhombus;whiteSpace=wrap;shadow=0;labelBackgroundColor=none;sketch=0;fontSize=12;fontColor=#000000;strokeWidth=1;gradientColor=none;verticalAlign=middle;" parent="1" vertex="1">
                    <mxGeometry x="293.57" y="990" width="215" height="80" as="geometry"/>
                </mxCell>
                <mxCell id="iyWC9JM9I8k5CofvmZy0-58" style="edgeStyle=none;rounded=0;orthogonalLoop=1;jettySize=auto;html=0;exitX=0.5;exitY=1;exitDx=0;exitDy=0;entryX=0.5;entryY=0;entryDx=0;entryDy=0;labelBackgroundColor=none;fontSize=12;fontColor=#000000;" parent="1" source="iyWC9JM9I8k5CofvmZy0-90" target="iyWC9JM9I8k5CofvmZy0-55" edge="1">
                    <mxGeometry relative="1" as="geometry">
                        <mxPoint x="413.21999999999974" y="1167.94" as="sourcePoint"/>
                    </mxGeometry>
                </mxCell>
                <mxCell id="iyWC9JM9I8k5CofvmZy0-55" value="    TransactionalTemplate.execute()" style="rounded=0;whiteSpace=wrap;shadow=0;sketch=0;fontSize=12;strokeWidth=1;gradientColor=none;verticalAlign=top;" parent="1" vertex="1">
                    <mxGeometry x="197.28" y="1202.48" width="410" height="370.46" as="geometry"/>
                </mxCell>
                <mxCell id="iyWC9JM9I8k5CofvmZy0-75" style="edgeStyle=none;rounded=0;orthogonalLoop=1;jettySize=auto;html=0;exitX=0.5;exitY=1;exitDx=0;exitDy=0;entryX=0.5;entryY=0;entryDx=0;entryDy=0;labelBackgroundColor=none;fontSize=12;fontColor=#000000;" parent="1" source="iyWC9JM9I8k5CofvmZy0-59" target="iyWC9JM9I8k5CofvmZy0-70" edge="1">
                    <mxGeometry relative="1" as="geometry"/>
                </mxCell>
                <mxCell id="iyWC9JM9I8k5CofvmZy0-59" value="GlobalTransactionContext.getCurrent()&lt;br&gt;&lt;br&gt;&lt;br&gt;GlobalTransactionContext.createNew()&lt;br&gt;获取全局事务或者创建全局事务" style="rounded=0;shadow=0;sketch=0;fontSize=12;fontColor=#000000;strokeWidth=1;gradientColor=none;verticalAlign=middle;whiteSpace=wrap;html=1;" parent="1" vertex="1">
                    <mxGeometry x="246.41" y="1327.48" width="311.75" height="90" as="geometry"/>
                </mxCell>
                <mxCell id="iyWC9JM9I8k5CofvmZy0-69" style="edgeStyle=none;rounded=0;orthogonalLoop=1;jettySize=auto;html=0;labelBackgroundColor=none;fontSize=12;fontColor=#000000;" parent="1" source="iyWC9JM9I8k5CofvmZy0-61" target="iyWC9JM9I8k5CofvmZy0-59" edge="1">
                    <mxGeometry relative="1" as="geometry"/>
                </mxCell>
                <mxCell id="iyWC9JM9I8k5CofvmZy0-61" value=" business.getTransactionInfo()&#10;获取全局事务注解信息" style="rounded=0;shadow=0;sketch=0;fontSize=12;fontColor=#000000;strokeWidth=1;gradientColor=none;verticalAlign=middle;whiteSpace=wrap;" parent="1" vertex="1">
                    <mxGeometry x="247.78" y="1252.48" width="309" height="40" as="geometry"/>
                </mxCell>
                <mxCell id="iyWC9JM9I8k5CofvmZy0-63" value="OR" style="rounded=1;whiteSpace=wrap;fillColor=#d5e8d4;strokeColor=#82b366;labelBackgroundColor=none;fontSize=12;shadow=0;glass=1;" parent="1" vertex="1">
                    <mxGeometry x="392.28" y="1352.48" width="20" height="20" as="geometry"/>
                </mxCell>
                <mxCell id="iyWC9JM9I8k5CofvmZy0-70" value="beginTransaction(txInfo, tx);&lt;br&gt;开启全局事务" style="rounded=0;whiteSpace=wrap;shadow=0;glass=0;sketch=0;fontSize=12;fontColor=#000000;strokeWidth=1;gradientColor=none;verticalAlign=top;html=1;" parent="1" vertex="1">
                    <mxGeometry x="242.39" y="1434.77" width="317.36" height="100.46" as="geometry"/>
                </mxCell>
                <mxCell id="iyWC9JM9I8k5CofvmZy0-81" style="edgeStyle=orthogonalEdgeStyle;rounded=0;orthogonalLoop=1;jettySize=auto;html=0;exitX=0;exitY=0.5;exitDx=0;exitDy=0;entryX=1;entryY=0.5;entryDx=0;entryDy=0;labelBackgroundColor=none;fontSize=12;fontColor=#000000;curved=1;" parent="1" source="iyWC9JM9I8k5CofvmZy0-78" target="iyWC9JM9I8k5CofvmZy0-80" edge="1">
                    <mxGeometry relative="1" as="geometry"/>
                </mxCell>
                <mxCell id="iyWC9JM9I8k5CofvmZy0-82" value="Netty通信获取XID" style="edgeLabel;html=1;align=center;verticalAlign=middle;resizable=0;points=[];fontSize=12;fontColor=#000000;" parent="iyWC9JM9I8k5CofvmZy0-81" vertex="1" connectable="0">
                    <mxGeometry x="0.129" y="3" relative="1" as="geometry">
                        <mxPoint as="offset"/>
                    </mxGeometry>
                </mxCell>
                <mxCell id="iyWC9JM9I8k5CofvmZy0-78" value="DefaultTransactionManager#begin" style="rounded=0;whiteSpace=wrap;shadow=0;glass=0;sketch=0;fontSize=12;fontColor=#000000;strokeWidth=1;gradientColor=none;verticalAlign=middle;" parent="1" vertex="1">
                    <mxGeometry x="273.78999999999996" y="1470" width="257" height="50" as="geometry"/>
                </mxCell>
                <mxCell id="iyWC9JM9I8k5CofvmZy0-92" value="" style="rounded=0;orthogonalLoop=1;jettySize=auto;html=0;labelBackgroundColor=none;fontSize=12;fontColor=#000000;edgeStyle=orthogonalEdgeStyle;" parent="1" source="iyWC9JM9I8k5CofvmZy0-80" target="iyWC9JM9I8k5CofvmZy0-91" edge="1">
                    <mxGeometry relative="1" as="geometry"/>
                </mxCell>
                <mxCell id="iyWC9JM9I8k5CofvmZy0-80" value="seata-server" style="ellipse;whiteSpace=wrap;html=1;rounded=1;shadow=0;glass=0;sketch=0;fontSize=12;fontColor=#000000;strokeWidth=1;gradientColor=none;verticalAlign=middle;" parent="1" vertex="1">
                    <mxGeometry x="-370" y="1020" width="130" height="60" as="geometry"/>
                </mxCell>
                <mxCell id="iyWC9JM9I8k5CofvmZy0-90" value="&lt;pre style=&quot;font-family: &amp;#34;jetbrains mono&amp;#34; , monospace ; font-size: 9.8pt&quot;&gt;handleGlobalTransaction&lt;/pre&gt;" style="rounded=0;whiteSpace=wrap;html=1;shadow=0;sketch=0;fontSize=12;strokeWidth=1;gradientColor=none;verticalAlign=middle;" parent="1" vertex="1">
                    <mxGeometry x="304.5599999999999" y="1122.94" width="195.44" height="45" as="geometry"/>
                </mxCell>
                <mxCell id="iyWC9JM9I8k5CofvmZy0-93" style="edgeStyle=orthogonalEdgeStyle;rounded=0;orthogonalLoop=1;jettySize=auto;html=0;exitX=0.5;exitY=1;exitDx=0;exitDy=0;labelBackgroundColor=none;fontSize=12;fontColor=#000000;entryX=0.5;entryY=0;entryDx=0;entryDy=0;" parent="1" source="iyWC9JM9I8k5CofvmZy0-91" target="iyWC9JM9I8k5CofvmZy0-94" edge="1">
                    <mxGeometry relative="1" as="geometry">
                        <mxPoint x="-312.14294117647074" y="1232.94" as="targetPoint"/>
                    </mxGeometry>
                </mxCell>
                <mxCell id="iyWC9JM9I8k5CofvmZy0-91" value="Server#start()" style="rounded=0;whiteSpace=wrap;html=1;shadow=0;glass=0;sketch=0;fontSize=12;fontColor=#000000;strokeWidth=1;gradientColor=none;align=center;verticalAlign=middle;" parent="1" vertex="1">
                    <mxGeometry x="-370" y="1130" width="130" height="50" as="geometry"/>
                </mxCell>
                <mxCell id="iyWC9JM9I8k5CofvmZy0-100" style="edgeStyle=orthogonalEdgeStyle;rounded=0;orthogonalLoop=1;jettySize=auto;html=0;entryX=0.5;entryY=0;entryDx=0;entryDy=0;labelBackgroundColor=none;fontSize=12;fontColor=#000000;" parent="1" source="iyWC9JM9I8k5CofvmZy0-94" target="iyWC9JM9I8k5CofvmZy0-98" edge="1">
                    <mxGeometry relative="1" as="geometry"/>
                </mxCell>
                <mxCell id="iyWC9JM9I8k5CofvmZy0-94" value="&lt;pre style=&quot;font-family: &amp;#34;jetbrains mono&amp;#34; , monospace ; font-size: 9.8pt&quot;&gt;&lt;span style=&quot;background-color: rgb(255 , 255 , 255)&quot;&gt;&lt;span style=&quot;font-family: &amp;#34;jetbrains mono&amp;#34; , monospace ; font-size: 9.8pt&quot;&gt;AbstractNettyRemotingServer&lt;/span&gt;#channelRead()&lt;/span&gt;&lt;/pre&gt;" style="rounded=0;whiteSpace=wrap;shadow=0;glass=0;sketch=0;fontSize=12;fontColor=#000000;strokeWidth=1;gradientColor=none;align=center;verticalAlign=middle;html=1;" parent="1" vertex="1">
                    <mxGeometry x="-460" y="1232.48" width="310" height="47.52" as="geometry"/>
                </mxCell>
                <mxCell id="iyWC9JM9I8k5CofvmZy0-101" value="" style="edgeStyle=orthogonalEdgeStyle;rounded=0;orthogonalLoop=1;jettySize=auto;html=0;labelBackgroundColor=none;fontSize=12;fontColor=#000000;" parent="1" source="iyWC9JM9I8k5CofvmZy0-98" target="iyWC9JM9I8k5CofvmZy0-99" edge="1">
                    <mxGeometry relative="1" as="geometry"/>
                </mxCell>
                <mxCell id="iyWC9JM9I8k5CofvmZy0-98" value="&lt;span&gt;DefaultCoordinator#doGlobalBegin()&lt;/span&gt;" style="rounded=0;whiteSpace=wrap;shadow=0;glass=0;sketch=0;fontSize=12;fontColor=#000000;strokeWidth=1;gradientColor=none;align=center;verticalAlign=middle;html=1;" parent="1" vertex="1">
                    <mxGeometry x="-420" y="1330" width="230" height="50" as="geometry"/>
                </mxCell>
                <mxCell id="iyWC9JM9I8k5CofvmZy0-103" style="edgeStyle=orthogonalEdgeStyle;curved=1;rounded=0;orthogonalLoop=1;jettySize=auto;html=0;exitX=1;exitY=0.5;exitDx=0;exitDy=0;entryX=0.5;entryY=1;entryDx=0;entryDy=0;labelBackgroundColor=none;fontSize=12;fontColor=#000000;" parent="1" source="iyWC9JM9I8k5CofvmZy0-99" target="iyWC9JM9I8k5CofvmZy0-78" edge="1">
                    <mxGeometry relative="1" as="geometry"/>
                </mxCell>
                <mxCell id="iyWC9JM9I8k5CofvmZy0-104" value="返回XID" style="edgeLabel;html=1;align=center;verticalAlign=middle;resizable=0;points=[];fontSize=12;fontColor=#000000;" parent="iyWC9JM9I8k5CofvmZy0-103" vertex="1" connectable="0">
                    <mxGeometry x="-0.1485" y="4" relative="1" as="geometry">
                        <mxPoint as="offset"/>
                    </mxGeometry>
                </mxCell>
                <mxCell id="iyWC9JM9I8k5CofvmZy0-106" style="edgeStyle=orthogonalEdgeStyle;curved=1;rounded=0;orthogonalLoop=1;jettySize=auto;html=0;exitX=1;exitY=1;exitDx=0;exitDy=0;labelBackgroundColor=none;fontSize=12;fontColor=#000000;dashed=1;dashPattern=1 1;" parent="1" source="iyWC9JM9I8k5CofvmZy0-99" target="iyWC9JM9I8k5CofvmZy0-105" edge="1">
                    <mxGeometry relative="1" as="geometry"/>
                </mxCell>
                <mxCell id="iyWC9JM9I8k5CofvmZy0-99" value="DefaultCore#begin" style="rounded=0;whiteSpace=wrap;shadow=0;glass=0;sketch=0;fontSize=12;fontColor=#000000;strokeWidth=1;gradientColor=none;align=center;verticalAlign=middle;html=1;" parent="1" vertex="1">
                    <mxGeometry x="-370" y="1490" width="130" height="50" as="geometry"/>
                </mxCell>
                <mxCell id="iyWC9JM9I8k5CofvmZy0-105" value="1. 创建GlobalSession对象&#10;2. GlobalSession持久化&#10;3. 生成XID返回" style="shape=note;strokeWidth=1;fontSize=12;size=20;whiteSpace=wrap;fillColor=#ffe6cc;strokeColor=#d79b00;verticalAlign=top;labelBackgroundColor=none;sketch=1;dashed=1;shadow=0;align=left;" parent="1" vertex="1">
                    <mxGeometry x="-210" y="1540" width="210" height="60" as="geometry"/>
                </mxCell>
                <mxCell id="iyWC9JM9I8k5CofvmZy0-108" value="TC" style="rounded=0;whiteSpace=wrap;fillColor=#ffe6cc;strokeColor=#d79b00;labelBackgroundColor=none;fontSize=12;" parent="1" vertex="1">
                    <mxGeometry x="-380" y="1036.47" width="20" height="20" as="geometry"/>
                </mxCell>
                <mxCell id="3lvvJiF0SDCLOV-xJQjg-8" value="" style="image;html=1;image=img/lib/clip_art/computers/Database_128x128.png" parent="1" vertex="1">
                    <mxGeometry x="-450" y="1470" width="80" height="80" as="geometry"/>
                </mxCell>
                <mxCell id="Foogz8reGD-KFwk75LfD-5" style="edgeStyle=orthogonalEdgeStyle;rounded=0;orthogonalLoop=1;jettySize=auto;html=1;entryX=0.5;entryY=0;entryDx=0;entryDy=0;" parent="1" source="Foogz8reGD-KFwk75LfD-4" target="iyWC9JM9I8k5CofvmZy0-38" edge="1">
                    <mxGeometry relative="1" as="geometry"/>
                </mxCell>
                <mxCell id="Foogz8reGD-KFwk75LfD-6" value="订单支付请求" style="edgeLabel;html=1;align=center;verticalAlign=middle;resizable=0;points=[];" parent="Foogz8reGD-KFwk75LfD-5" vertex="1" connectable="0">
                    <mxGeometry x="-0.1625" y="3" relative="1" as="geometry">
                        <mxPoint as="offset"/>
                    </mxGeometry>
                </mxCell>
                <mxCell id="Foogz8reGD-KFwk75LfD-4" value="" style="pointerEvents=1;shadow=0;dashed=0;html=1;strokeColor=none;labelPosition=center;verticalLabelPosition=bottom;verticalAlign=top;outlineConnect=0;align=center;shape=mxgraph.office.users.user;fillColor=#2072B8;" parent="1" vertex="1">
                    <mxGeometry x="379.29" y="640" width="46" height="50" as="geometry"/>
                </mxCell>
                <mxCell id="Foogz8reGD-KFwk75LfD-60" value="" style="edgeStyle=orthogonalEdgeStyle;rounded=0;orthogonalLoop=1;jettySize=auto;html=1;labelBackgroundColor=#FFFFFF;" parent="1" source="Foogz8reGD-KFwk75LfD-24" target="Foogz8reGD-KFwk75LfD-59" edge="1">
                    <mxGeometry x="-0.1667" y="300" relative="1" as="geometry">
                        <Array as="points">
                            <mxPoint x="-120" y="2120"/>
                            <mxPoint x="-120" y="2120"/>
                        </Array>
                        <mxPoint as="offset"/>
                    </mxGeometry>
                </mxCell>
                <mxCell id="Foogz8reGD-KFwk75LfD-61" value="&lt;br&gt;&lt;span style=&quot;font-family: &amp;#34;jetbrains mono&amp;#34; , monospace ; font-size: 13.0667px&quot;&gt;pair&lt;/span&gt;&lt;span style=&quot;font-family: &amp;#34;jetbrains mono&amp;#34; , monospace ; font-size: 13.0667px&quot;&gt;.getFirst&lt;/span&gt;&lt;span style=&quot;font-family: &amp;#34;jetbrains mono&amp;#34; , monospace ; font-size: 13.0667px ; font-style: italic&quot;&gt;()&lt;/span&gt;&lt;span style=&quot;font-family: &amp;#34;jetbrains mono&amp;#34; , monospace ; font-size: 13.0667px&quot;&gt;.process&lt;/span&gt;&lt;span style=&quot;font-family: &amp;#34;jetbrains mono&amp;#34; , monospace ; font-size: 13.0667px ; font-style: italic&quot;&gt;(&lt;/span&gt;&lt;span style=&quot;font-family: &amp;#34;jetbrains mono&amp;#34; , monospace ; font-size: 13.0667px&quot;&gt;ctx&lt;/span&gt;&lt;span style=&quot;font-family: &amp;#34;jetbrains mono&amp;#34; , monospace ; font-size: 13.0667px&quot;&gt;,&amp;nbsp;&lt;/span&gt;&lt;span style=&quot;font-family: &amp;#34;jetbrains mono&amp;#34; , monospace ; font-size: 13.0667px&quot;&gt;rpcMessage&lt;/span&gt;&lt;span style=&quot;font-family: &amp;#34;jetbrains mono&amp;#34; , monospace ; font-size: 13.0667px ; font-style: italic&quot;&gt;)&lt;/span&gt;&lt;br class=&quot;Apple-interchange-newline&quot;&gt;" style="edgeLabel;html=1;align=center;verticalAlign=middle;resizable=0;points=[];fontColor=#000000;" parent="Foogz8reGD-KFwk75LfD-60" vertex="1" connectable="0">
                    <mxGeometry x="-0.12" y="1" relative="1" as="geometry">
                        <mxPoint as="offset"/>
                    </mxGeometry>
                </mxCell>
                <mxCell id="Foogz8reGD-KFwk75LfD-24" value="&lt;pre style=&quot;font-family: &amp;quot;jetbrains mono&amp;quot;, monospace; font-size: 9.8pt;&quot;&gt;AbstractNettyRemoting#processMessage&lt;/pre&gt;" style="rounded=0;whiteSpace=wrap;html=1;fillColor=#ffffff;" parent="1" vertex="1">
                    <mxGeometry x="-260" y="2020" width="280" height="60" as="geometry"/>
                </mxCell>
                <mxCell id="Foogz8reGD-KFwk75LfD-38" style="edgeStyle=orthogonalEdgeStyle;rounded=0;orthogonalLoop=1;jettySize=auto;html=1;fontColor=#000000;" parent="1" source="Foogz8reGD-KFwk75LfD-39" target="Foogz8reGD-KFwk75LfD-42" edge="1">
                    <mxGeometry relative="1" as="geometry">
                        <Array as="points">
                            <mxPoint x="-820" y="1920"/>
                            <mxPoint x="-820" y="1920"/>
                        </Array>
                    </mxGeometry>
                </mxCell>
                <mxCell id="Foogz8reGD-KFwk75LfD-39" value="mall-oms" style="ellipse;whiteSpace=wrap;html=1;rounded=1;shadow=0;glass=0;sketch=0;fontSize=12;fontColor=#000000;strokeWidth=1;gradientColor=none;verticalAlign=middle;" parent="1" vertex="1">
                    <mxGeometry x="-890" y="1840" width="140" height="52.94" as="geometry"/>
                </mxCell>
                <mxCell id="Foogz8reGD-KFwk75LfD-40" value="RM" style="rounded=0;whiteSpace=wrap;fillColor=#ffe6cc;strokeColor=#d79b00;labelBackgroundColor=none;fontSize=12;" parent="1" vertex="1">
                    <mxGeometry x="-890" y="1856.47" width="20" height="20" as="geometry"/>
                </mxCell>
                <mxCell id="Foogz8reGD-KFwk75LfD-41" value="" style="edgeStyle=orthogonalEdgeStyle;rounded=0;orthogonalLoop=1;jettySize=auto;html=1;fontColor=#000000;" parent="1" source="Foogz8reGD-KFwk75LfD-42" target="Foogz8reGD-KFwk75LfD-45" edge="1">
                    <mxGeometry relative="1" as="geometry"/>
                </mxCell>
                <mxCell id="Foogz8reGD-KFwk75LfD-55" style="edgeStyle=orthogonalEdgeStyle;rounded=0;orthogonalLoop=1;jettySize=auto;html=1;entryX=0;entryY=0.5;entryDx=0;entryDy=0;entryPerimeter=0;curved=1;dashed=1;" parent="1" source="Foogz8reGD-KFwk75LfD-42" target="Foogz8reGD-KFwk75LfD-54" edge="1">
                    <mxGeometry relative="1" as="geometry"/>
                </mxCell>
                <mxCell id="Foogz8reGD-KFwk75LfD-42" value="&lt;pre style=&quot;font-family: &amp;quot;jetbrains mono&amp;quot;, monospace; font-size: 9.8pt;&quot;&gt;&lt;pre style=&quot;font-family: &amp;quot;jetbrains mono&amp;quot; , monospace ; font-size: 9.8pt&quot;&gt;SeataDataSourceAutoConfiguration&lt;/pre&gt;&lt;/pre&gt;" style="rounded=0;whiteSpace=wrap;html=1;shadow=0;glass=0;sketch=0;strokeWidth=1;" parent="1" vertex="1">
                    <mxGeometry x="-960" y="1960" width="280" height="60" as="geometry"/>
                </mxCell>
                <mxCell id="Foogz8reGD-KFwk75LfD-43" value="" style="edgeStyle=orthogonalEdgeStyle;rounded=0;orthogonalLoop=1;jettySize=auto;html=1;fontColor=#000000;" parent="1" source="Foogz8reGD-KFwk75LfD-45" target="Foogz8reGD-KFwk75LfD-48" edge="1">
                    <mxGeometry relative="1" as="geometry">
                        <Array as="points">
                            <mxPoint x="-820" y="2180"/>
                            <mxPoint x="-820" y="2180"/>
                        </Array>
                    </mxGeometry>
                </mxCell>
                <mxCell id="Foogz8reGD-KFwk75LfD-44" value="&lt;pre style=&quot;font-family: &amp;quot;jetbrains mono&amp;quot;, monospace; font-size: 9.8pt;&quot;&gt;&lt;span style=&quot;&quot;&gt;this&lt;/span&gt;.buildProxy&lt;/pre&gt;" style="edgeLabel;html=1;align=center;verticalAlign=middle;resizable=0;points=[];" parent="Foogz8reGD-KFwk75LfD-43" vertex="1" connectable="0">
                    <mxGeometry x="-0.2364" y="2" relative="1" as="geometry">
                        <mxPoint as="offset"/>
                    </mxGeometry>
                </mxCell>
                <mxCell id="Foogz8reGD-KFwk75LfD-45" value="&lt;pre style=&quot;font-family: &amp;#34;jetbrains mono&amp;#34; , monospace ; font-size: 9.8pt&quot;&gt;&lt;pre style=&quot;font-family: &amp;#34;jetbrains mono&amp;#34; , monospace ; font-size: 9.8pt&quot;&gt;&lt;pre style=&quot;font-family: &amp;#34;jetbrains mono&amp;#34; , monospace ; font-size: 9.8pt&quot;&gt;SeataAutoDataSourceProxyCreator#wrapIfNecessary&lt;/pre&gt;&lt;/pre&gt;&lt;/pre&gt;" style="rounded=0;whiteSpace=wrap;html=1;shadow=0;glass=0;sketch=0;strokeWidth=1;" parent="1" vertex="1">
                    <mxGeometry x="-990" y="2080" width="340" height="60" as="geometry"/>
                </mxCell>
                <mxCell id="Foogz8reGD-KFwk75LfD-46" style="edgeStyle=orthogonalEdgeStyle;rounded=0;orthogonalLoop=1;jettySize=auto;html=1;exitX=0.5;exitY=1;exitDx=0;exitDy=0;fontColor=#000000;" parent="1" source="Foogz8reGD-KFwk75LfD-48" edge="1">
                    <mxGeometry relative="1" as="geometry">
                        <mxPoint x="-820" y="2440" as="targetPoint"/>
                    </mxGeometry>
                </mxCell>
                <mxCell id="Foogz8reGD-KFwk75LfD-47" value="&lt;pre style=&quot;font-family: &amp;quot;jetbrains mono&amp;quot;, monospace; font-size: 9.8pt;&quot;&gt;DefaultResourceManager.&lt;span style=&quot;font-style: italic&quot;&gt;get&lt;/span&gt;().registerResource&lt;/pre&gt;" style="edgeLabel;html=1;align=center;verticalAlign=middle;resizable=0;points=[];fontColor=#000000;" parent="Foogz8reGD-KFwk75LfD-46" vertex="1" connectable="0">
                    <mxGeometry x="-0.2154" y="-2" relative="1" as="geometry">
                        <mxPoint as="offset"/>
                    </mxGeometry>
                </mxCell>
                <mxCell id="Foogz8reGD-KFwk75LfD-48" value="&lt;pre style=&quot;font-family: &amp;quot;jetbrains mono&amp;quot;, monospace; font-size: 9.8pt;&quot;&gt;&lt;span style=&quot;&quot;&gt;DataSourceProxy#init&lt;/span&gt;&lt;/pre&gt;" style="whiteSpace=wrap;html=1;rounded=0;shadow=0;strokeWidth=1;glass=0;sketch=0;" parent="1" vertex="1">
                    <mxGeometry x="-910" y="2250" width="180" height="60" as="geometry"/>
                </mxCell>
                <mxCell id="Foogz8reGD-KFwk75LfD-62" style="edgeStyle=orthogonalEdgeStyle;rounded=0;orthogonalLoop=1;jettySize=auto;html=1;entryX=0;entryY=0.5;entryDx=0;entryDy=0;labelBackgroundColor=#FFFFFF;fontColor=#000000;curved=1;" parent="1" source="Foogz8reGD-KFwk75LfD-49" target="Foogz8reGD-KFwk75LfD-51" edge="1">
                    <mxGeometry relative="1" as="geometry"/>
                </mxCell>
                <mxCell id="Foogz8reGD-KFwk75LfD-63" value="RPC调用注册RM" style="edgeLabel;html=1;align=center;verticalAlign=middle;resizable=0;points=[];fontColor=#000000;" parent="Foogz8reGD-KFwk75LfD-62" vertex="1" connectable="0">
                    <mxGeometry x="-0.0362" y="-3" relative="1" as="geometry">
                        <mxPoint as="offset"/>
                    </mxGeometry>
                </mxCell>
                <mxCell id="Foogz8reGD-KFwk75LfD-49" value="&lt;pre style=&quot;font-family: &amp;quot;jetbrains mono&amp;quot;, monospace; font-size: 9.8pt;&quot;&gt;AbstractResourceManager#registerResource&lt;/pre&gt;" style="rounded=0;whiteSpace=wrap;html=1;fillColor=#ffffff;" parent="1" vertex="1">
                    <mxGeometry x="-960" y="2440" width="280" height="70" as="geometry"/>
                </mxCell>
                <mxCell id="Foogz8reGD-KFwk75LfD-58" value="" style="rounded=0;orthogonalLoop=1;jettySize=auto;html=1;edgeStyle=orthogonalEdgeStyle;" parent="1" source="Foogz8reGD-KFwk75LfD-50" target="Foogz8reGD-KFwk75LfD-24" edge="1">
                    <mxGeometry relative="1" as="geometry"/>
                </mxCell>
                <mxCell id="Foogz8reGD-KFwk75LfD-50" value="seata-server" style="ellipse;whiteSpace=wrap;html=1;rounded=1;shadow=0;glass=0;sketch=0;fontSize=12;fontColor=#000000;strokeWidth=1;gradientColor=none;verticalAlign=middle;" parent="1" vertex="1">
                    <mxGeometry x="-190" y="1920" width="140" height="50" as="geometry"/>
                </mxCell>
                <mxCell id="Foogz8reGD-KFwk75LfD-51" value="TC" style="rounded=0;whiteSpace=wrap;fillColor=#ffe6cc;strokeColor=#d79b00;labelBackgroundColor=none;fontSize=12;" parent="1" vertex="1">
                    <mxGeometry x="-200" y="1936.47" width="20" height="20" as="geometry"/>
                </mxCell>
                <mxCell id="Foogz8reGD-KFwk75LfD-54" value="满足条件&#10;1.seata.enabled:true&#10;2.seata.enable-auto-data-source-proxy:true" style="shape=note;strokeWidth=1;fontSize=12;size=20;whiteSpace=wrap;fillColor=#ffe6cc;strokeColor=#d79b00;verticalAlign=top;labelBackgroundColor=none;sketch=1;dashed=1;shadow=0;align=left;" parent="1" vertex="1">
                    <mxGeometry x="-640" y="1960" width="250" height="60" as="geometry"/>
                </mxCell>
                <mxCell id="Foogz8reGD-KFwk75LfD-67" style="edgeStyle=orthogonalEdgeStyle;rounded=0;orthogonalLoop=1;jettySize=auto;html=1;exitX=0.5;exitY=1;exitDx=0;exitDy=0;entryX=0.5;entryY=0;entryDx=0;entryDy=0;labelBackgroundColor=#FFFFFF;fontColor=#000000;" parent="1" source="Foogz8reGD-KFwk75LfD-59" target="Foogz8reGD-KFwk75LfD-66" edge="1">
                    <mxGeometry relative="1" as="geometry">
                        <Array as="points">
                            <mxPoint x="-120" y="2350"/>
                            <mxPoint x="-120" y="2350"/>
                        </Array>
                    </mxGeometry>
                </mxCell>
                <mxCell id="Foogz8reGD-KFwk75LfD-69" style="edgeStyle=orthogonalEdgeStyle;rounded=0;orthogonalLoop=1;jettySize=auto;html=1;exitX=1;exitY=0.5;exitDx=0;exitDy=0;entryX=0;entryY=0.5;entryDx=0;entryDy=0;labelBackgroundColor=#FFFFFF;fontColor=#000000;curved=1;dashed=1;" parent="1" source="Foogz8reGD-KFwk75LfD-59" target="Foogz8reGD-KFwk75LfD-65" edge="1">
                    <mxGeometry relative="1" as="geometry"/>
                </mxCell>
                <mxCell id="Foogz8reGD-KFwk75LfD-70" value="请求消息体" style="edgeLabel;html=1;align=center;verticalAlign=middle;resizable=0;points=[];fontColor=#000000;" parent="Foogz8reGD-KFwk75LfD-69" vertex="1" connectable="0">
                    <mxGeometry x="0.321" y="1" relative="1" as="geometry">
                        <mxPoint x="-15" y="1" as="offset"/>
                    </mxGeometry>
                </mxCell>
                <mxCell id="Foogz8reGD-KFwk75LfD-59" value="&lt;pre style=&quot;font-family: &amp;quot;jetbrains mono&amp;quot;, monospace; font-size: 9.8pt;&quot;&gt;RegRmProcessor#onRegRmMessage&lt;/pre&gt;" style="rounded=0;whiteSpace=wrap;html=1;" parent="1" vertex="1">
                    <mxGeometry x="-260" y="2180" width="280" height="60" as="geometry"/>
                </mxCell>
                <mxCell id="Foogz8reGD-KFwk75LfD-65" value="" style="shape=image;verticalLabelPosition=bottom;labelBackgroundColor=#ffffff;verticalAlign=top;aspect=fixed;imageAspect=0;image=data:image/png,iVBORw0KGgoAAAANSUhEUgAAAdMAAABnCAYAAABb0qh6AAAAAXNSR0IArs4c6QAAAARnQU1BAACxjwv8YQUAAAAJcEhZcwAADsMAAA7DAcdvqGQAABycSURBVHhe7Z1RcxVHdsfzeeJyld/yGLuKSqUERiCEQDZGeFHMIlhh0FqluLyGBMM6OFDYi4036zgux94lbOKl/JTC7/4g4YN05nT36Tndc7pn5s5c3Xul/8OvaqZP9+kzPfeev7rvaPqvjr7+ugEAAADA5EBMAQAAgIFATAEAAICBQEwPMUunL5ndm7vmndPHVDsA88rS23fNk+dPzJ238dkF02fpxmPz/Mlds3Es/3kLYrp6+rQ588YbjQo5lk+umLU3zpnTZ9fN68vLDfvrJ05Y25k33zLHT55s2EGepWPnzfbNm2b30unq+LR5Z/emuXXrVuDm7iVzqnBTu7IfYtoWP9tvZuLgseA20xyP/cSNfXwddL/VuuLz0Mem2U9d2o36ZLbP+/tx/look/eE2t28ec2cy4zz0rG3zZ0nz83ju5XI+aTDZT/99FOgLSF1ZT/EtC1+tj/PxLF07IZ5/Lyy78N47Ad8PU/uvq3aF5nrj8vX1VlMSUi//uZb89mjz9VKkhMrK+bmxw/Ml3/8i/m3Pz2z/O6bJ2br3V+HOlduvGceVWVs//L7H8yHv71vlqu20hfQoYR289p5d+zFg5Mdce5aJS7ePm20/vvQFj/bd3d3VUHg5J+K6azGow+5scsJk70OUc7tqWy7ssnxKdkkPH5ZsbWi7vq0wiv/0KHPoYiH4it9DighaWL6+Ebdhuo8f3wjajcttP770BY/2588eaIm4o27TyLBnPV49EGL1QrKHMY6BqOIKQspQcdaJQkL5Acf3TPvXL1mrlz/tfnki383v6/E9cvv/sc8/u6/rf3e51+Zrevv2Tq/ufNJaKf5BDGUADn5aQlZiu20yQlCV9riD/ZLdVKP21azo0tV/YKY7ud49CEbK19LdexmgE4QqZ4VWuVaSMhygpizWaGs+nqnpW3u3rpZbTw7zfkhrj+uZmg3ymK6nwlZ678PbfEHO/0B8fyxuR59dslWjcfdOgnPejz6oMVKfxwcxFkpMYqY9hFSwgrloz9EZWfePGfL73/5jYWOT6/HS8YkuKmYLh27aH6+f9s8vbhtXty/b8yDB+bni9WH7uKePSZebJ9J6rt6qe3q9u1Qbu7vmXv+onPlS2fqPgnql31F/VB821U8t7fNVW5biCOF/zpNKd24kpjyuUxqvJTHy3M5m122k8IkZiVUl2cxnODfPBr7rQVN76+O1dmp/srR1WL88vpSUQjCIwVoxPFgcuPROC/47Tp2LF6NGaEXLXcc/1FB9BXT0riGOmJcU1uwi1jaxDQlTch8Lj/7vHSofS+kzS6lSmGyy7y1gMnv2fOq/N2jsd9a0PT+6lidneqfP3qhGL+8vjQZh+QrkvCY48HkxqNxXvDbdeykmGrjVRpfrZ9cbJGtcF19YyjF1rh/SV2C/ZNduxYrpl2FlPiXSkg/evAoKjt+4qQVyut7H5id92/aWeqx48ejOncfPjYff/b7qCyIkheqIKJ7F53dCp4TwCC8Z/gGnDFPb9934ivqRf5z5dR2T4gj9Rv14/yGulU/IcZCHOx/KDL5cVKsE3U9U3D2OhHL+jZh++SfCo8mHqlw1P5rf+681J/3L/xwWT5+0V4k70Z5IqZjjAdBY91FTIt+e42dq9f8g0led9NXXzGVZZo9jS3FXVNsp5j7rABwsquTTvzboktYdZkUG05mqfBo4pEm3Np/7c+dl/rz/mXi9mX5+EV7Es1GkvflIcm3+es+HoRdIlbGw7aNRKfgt+PYEVJw2N4Uxb79uOuKhEyOZfG6cjHE/upyPTY6j6/N+eg61oxd5pUFbbx/+2Pz6Jv/MidWToWycxd+YcX0l9dumK13d+zxm+cvBPvJ1VXz+bdPzd4/3Q1lRFOY8udytiqhWSELoJ1F+rZ1+2Y5o81abT9iFkrIslIc0vekpAkrTXo2+Ut7JTQsLBJKntrMIxKmhliQEObFrrU/JUG3xi/sfJzGHh23+SvFJ/zI+tp4WJscn5LfrmOXiKlWLo/ZD6EJYs6WXqfWNvcHAGE/g8m1MKU4UrSEJZc0KWmysEgoqUkRkvVVMfXJryR2rf0ldbX2jfiFnY/T2KPjNn+l+IQfWV8bD2uT41Py23HsaCaWu/ZQNkk/2nXJcS1dVyaG1B+X52IjeySmWkyiLHctvf81Zv2tDftA0Seff2UfNNrefd88/Oo788W3fzYrq6ftE7z02+nDP/yn2X7vH22df/3ia1t29txbka/eYpqIXEqYRTZENS7nJV4WwGgG3EVMW+KQyOUA7SZqyISlJ2RxrggE01c8rN33x8m00X+pv6SuVtaIP+Nf/s4XxdzmrxSfYot8t4hpzi/DsWXHzp47m/yj6dSla2aXZ6bUj/jjgOkqptynJvwy/pw/Ktf6JyadmXKyS//izyW+nC1KaEmStXbfHye5Rv+l/rTE3BZ/xv+dTGJu9VeKT7FFvlvENOeX4dhyY0dEgqPYJ+pHuy5bx9tHFNNSbH3ENJQl1zLR/5le/OUV87v/+JOdgRJ0fPHy1WD/hyvbkf2zr/9ofnFpK/JB9BJTexwvp97b8wJYieHTZFmWl3/V8kQQ7Qy11zKvHgefD4WSVk5M2R4EIBET4tw1n5gzwqWJBx2/k9Sjdmn/5f6asbbHr/uPloql4LX6Gzoe9YzM+uXxKfntOHbBZyVIbCORo3tN5angSbqKqUZqd9fSnHnKz4MsZyjGUj8pWrKzMxyflFIxIa4/5kSpC1doK5NqdXwnqUft0v7L/TVjbY9f9x8tO4ok3O5v6Hi4pB78BtEp+O04duyzKKYT9ePayMlFNGbF62qPgc7vVL5Lsblj+YdC6sP1I2PSrmXQSxv4/0w1G0G29EEkSUk81XM/o+Sl1VjQ6nL+zTVXHgTSl7+oxFD+thr1Q/2nDyAV4hgDmbS0hBxEwM8SXBKsZyNRXWGzM6bCA0iUdNmHnIGkiT7XXynWXPyanQUn1G8RU+nPnpfGo/LF5el4kJ2vlditxLI5U9X9dh07rivPu1ASzJKNSO3pfQ/lYmwkfJ3yc9kFPdn5xOSXDF2yrH9HjOoKm/3rv/AAEiVD9iGXIyn52rKoXbO/Uqy5+DW7TfbJ0m3ou8WfPS+NR+WLy9PxIDtfK/GkEormjE7323Xs6LwkprZ8gn5YvIJNxE3krqtLDNEfNi2xpYLO9bSx1q5lkJgeFvou7Q4lt9Q3BlKYNPthY1bjoQnXvN8XEmX5B8R+I4VJsx829ns8bH9CBEEMxDTBzVrFLNUv6471gFEXeEmxzyxAw83YxMxqJL8HCfxx0Q27WlBYAh4bN+sQswo/e5Gzh8POvosp7kERiKlCuoy7n0I6NunSJIQ0BmI6v6TLckjiMZipzxcQUwAAAGAgEFMAAABgIBBTAAAAYCAQUwAAAGAgEFMAAABgIHMjpisnj5kPr/y9+fo3f2f+fOeIhY6pjGxaGwAAAGAemAsxvXphyTz96Ih59rEO2aiO1hYAAACYNROL6dn1dfPZo897bd+mQSL5F0VAU6gOBNWx329kkiytrZjNu2tmfU3ve+nCqrn8wYpZrmJbOnbcrH9w1mxcWMyVhaVjJ8zG3VWziv/j6zwWbZ+PIbgYpuN7XpHjjs/jfDOxmJKI9t1YPOXUyjF1Rvrh5t+Y5VdfMpvLr0TlVJfaaL4OEvQ+4dKLIvZLTIMYblUJkgUSYhrhxiOuo5UtOosmpq7uWbP123VzOb0/nW3NvujzTTatrbWPfO/luMtjre5+oOUErd5hZNAy71BBpd9DpVgyq0deNt/fek21URvN10FiXsSUWN3p98U5bGK6vLVmNrfijfC1skVnaCIf47PgYmgXU9dXHSt9hi/vnOhoOxvunf0si2uWn2061xj73s+bmBJ9c8JhYfBvpkMElR4w0gTz+N/+tVpOUBvN10FivsS0Sl4XIKZ5e5zcuyb8RWNoIt9PMU0piWD0eU1mlTJmd1zuexr3Xo770HswFn1zwmFhlAeQzm1smB+e/WgePPxUteegJ3ZTsSQhZWi5N7VTm9RPvVepeyk9Cw2/pF57x67dw9SX816mzlfcJrLZd/bq531jKMWWimkjJkKIae5aUuRWRpI+7zxtJhz6grtlsbD81RDTuI5MqGl7+qteLhWGBEVfXl/PJrcqCUZtfF9yViATJc0YuH402yjGTzafyJTlSy1JyzL6Cz7Mcnw/fO1c78xIdTiGtnFIrzcai/TeinM5FrWteU9TH7Ys7TMTSxSzYnNl1T3YEkutPKtU7g8j70PJZsfJ+0vt1n8V93p1LmOSdZvj3P65DW1z42n96PdAIx235me9e0y57wzQmenMVBNTojQzLYlpUxTl3qgsdtWHJxHF2o8TrUjIaBbIgtlBTDVhlv7qcj02Opdiyj4ae7eyWGeuZVrIZMlfXP7iE5R86oTiEntjqSxp30hKIjFyneDTf/HjJOr9iWRGNorFJgtRJ+qnNX6ye98iJllXtk3LKBmFOKvYNquZDV8r1aPjserQMZMdB2W8bd3oGutxisZWjgXd153af8lH6Cf8YeXbWH/1eEq7FmfdRizLinuS3h93XgtG5Cdjk+PM8PjSNcr6aX9cN76+jp/b0nhG414fc58SbdyavjrGJI7ZFygz099Mx1rmTcXIlpEIypmch0SKBcpu/O0FLbRJlk9LIqyJaSOGxF8oz8RG9khMtZhEWe5apkX0haMvqkja1i7K0gRq7TJpKu1TXAKQSTd/3jxOkkiS/Nrjr32wPdRTkk1aJs/t0tha5c/6pjHwcY5Uh2Ow/ebGQbteeT8K8Wtjoc1cUh9M+lmgWLithIVL+1zI66p9Nq8/hUQu9zmTNttvQUxTH2yj48bYNWItnxPqeIpxl8fcRtJ6f3vE5I6b3xmQZ2IxHSqkRO4BpJKYag8g9REyCbdjIVKFy9bx9jHFtBBbHzENZcm1cLlk7GVe9csrytIEau3yy620T+mTAOicEhIlOG2WwX1zgmiPn3zryUvzn5bVyb7yY336c/F701h1ZByENg7q9QbfVT8dxdSV60KS+oj7icU0d+9ztua9r2OX9VLSdjlb2q+M2V5XEpMU0+a9T2PNnxfH09ZrHnM/ktb72yOmuD1EtQsTi+kY/2ea+9eYnJjm/jVGFTJ1edQLXyWCT325bMttWMisXQiXE89arOxvlSUxTWKg86diZqzF5o7zy7xBNEVM2rXQ+TRoftFFguQvnv9Ch3ORZGzSybY/YdarhOL6mCwBuKS3WolOXLaexGgTZKP/NH6y+1ijmGof1C71y2WEFbUqFh4DPufEOVYdGV84T8fBX6/0KxNw6oP6UGdISdKO6lkf7WOWjj2xuiP7iuvaz4Utl9dDPr1/2Rcdp585eY05WxqjHBtv08Zbu/fNWPPnxfG09ZrH3I/E2Qv3txBDek7Xp31n2C9oMsoDSEMY46UNORFx4lcJj19GjcWrLjd7F+s2XryCTcxECfmwz4tKAEszU+tPxtCY1eZjawi6r2dnntvxzDR3LdPAJZH6C01f1nppqvoibjUT0EaVJNPlq9if+/0qTsj+S90jAbBPbVmPykIMIpmW4yffSkx0nPjXykK5FAbhZ8w6WhttHNw1ibFI7gclcrZtVvdNnyG5+6rWs3E0x0z6DuPrr4n9RGIkbLGwiGu2cbjzXF+yPfsu2bR+gy0Zu+heqOMsY82fF8fT1msecz8prk7tS15DKQbtPPedATozF1OCRFKboTJkw9uP5gOXbMpf6Fkjl9/6ks4SNDT/Q/qcFvMY00EE4wyIuRBTAi+6XwzsElSL2MySoWLfJqbpX++5slmzCH/0HATm8d6D2TA3YgrmG14OTZe+5gmaIVCMcrmwL11mpvPOGOMA5hcn4PUSLIP7PVsgpgAAAMBAIKYAAADAQCCmAAAAwEAgpgAAAMBAIKYAAADAQOZGTPGvMQAAABaVuRBTvLQBAADAIjOxmI7xbl6CRHLo6wSnTfpOXgAAAEAysZiOsWtM7kX3tCn48qsvmc3lV6Jyqqu96H7azJOYhvfdbuXeB1p+tZl8LylReuem5q/UPwAAHFYGLfMOFVT6PVSKJbN65GXz/a3XVBu10XwdJugNN1LMWODo7UQbLe8J7fIe0TZ/af/SBgAAh5HBv5kOEVR6wEgTzL6bgx827AbRmb0s28TSCmGP145p/kr9AwDAYWSUB5DObWyYH579aB48/FS156AndlOxJCFlaLk3tVMb6YO3PpNbltlt0ni/z2RLtXqfUN4yzdt9fbnFWtir1C7ziu3TCtu0OZvfJs3bZWwpY2zYLSmJabrVU5f37LaJMwAAgBnPTDUxJUoz01RMiWgDb7GvaBA2/1tnbHPHzT1G6/PgX5SzkDb2G03svK/ofv/e2kf8uuwAAzEFAIB2Zvqb6VjLvFI0I+GTm2oLSAilsMZ+SGBj8Wv4FBtzu3ZtAj6fYtpl+yiIKQAAtDOxmA4VUiL3AFJJTHMPIN3bc7NFWqYNS7mK8DGamKY2FtVuYurr9hTT/VzmTYGYAgDAOEwspmP8n2nuX2NyYlr61xgreLf3zM9CuHimKQXz3h4vxzbFlHw89efSHomp99lY5g3LzPM1M3WbRDvBpN9Ml4VwUl1e5pX12M51IKYAAFBmlAeQhjDWSxtY/Pi3ylBuhbAq90u8LJ6amBI0ww1LwtHvnk5MXVsnqKFewza/Yho9gCR+L4WYAgDA5MxcTAkSSW2GypBtVm8/AgAAANqYCzEl8KJ7AAAAi8rciCkAAACwqEBMAQAAgIFATAEAAICBQEwBAACAgUBMAQAAgIFATAEAAICBzI2Y4l9jAAAALCpzIaZ4aQMAAIBFZmIxHePdvASJ5BivE5wW7vWA/r289rWC470acGx/JUov/Z833Av43V6r8lirCwAA88DEYjrGrjG5F93TpuDLr75kNpdficqpbu5F99NiUcSUd83RbMTYYsrv+d3YWjGbLXui9mXexHSa1woAOBgMWuYdKqj0e6gUS2b1yMvm+1uvqTZqo/maFlJMNXsfci/XH4P9FlOCXoJ/GMSUmNa1AgAOBoN/Mx0iqPSAkSaYfTcHnyYQ0zyrO2tm/cJhEdPpXCsA4GAwygNI5zY2zA/PfjQPHn6q2nPQE7upWJKQMrTcm9qpjebLLZmWtlojUZzEni7z1sLqbHWbsCm5Ektal4Ttytqviv7Urd22K1H0dimeqZg2fBEFMR1jk3InfF507rqt3jYuVNd+YTVs+9bcHq7eEo7q1n66i6mrI7aWE/X7xrS8tab6AQCAEjOdmWpiSpRmppqYWkHcq4XCzsJYAL1YRsLUy06i5I+FmLJYpbPBLrEEoW7x14yjijPaY7X+vVWKKdflftg+9sw0hUUtbDjuBevyzglnt+LJInncrO/Uszyqy+LVR0y5z0ikG746xiSO2RcAAHRhpr+Zjr3Me3X7dj0LywgYIcva7RkxJaEriFOXWNr8NeOoxdPZMmKq+WqJdwyccNUbjLedE9pM0NXLHbvZ5WXvxwpnsvQaHhiiGWhLDPKc/bNv9gcAAG1MLKZDhZTIPYBUElPtASQnSkJMohlfm1i22fuJaZ9Y2vy5+k4wpy2moy7zdhEuv8TLM8p41kr1msfcjyQvplIgu8UUt4eoAgC6M7GYjvF/prl/jcmJae5fY1KhsLPCRMB4ebS/PSOmtlwIY3X+tBKzLrGoYur9sSBau/DVS0wbsflrLIjpGPQRrlQEaYY66jIvL+sWYkjPSdDXw++29eyW/QIAQI5RHkAawhgvbQhi4ZdVX+ztNWeDVVm67Crb5u26mFqbPff9Jv2xLxkLtQnLv5WwTfQAUgcxtXYS4uCnqkcPLs2TmHqx4iXezZ3ViWamhKvT8gBSh5jonP4FJvjxv6sCAEAbMxdTgkRSm6EyZJv07UdBLP0sra8dAAAAaGMuxJSY1ovuIaYAAACmzdyI6bSAmAIAAJg2B15MAQAAgGkDMQUAAAAGAjEFAAAABgIxBQAAAAYCMQUAAAAGMjdiOq1/jQEAAACmzVyI6TRf2gAAAABMm4nFdIx38xIkkkNfJ7iouNcR1q8EnGcWKdaDgnyVojzW6gIAZsvEYjrGrjG5F93TpuDLr75kNpdficqprvai+0VlTIFK3+s79ksoxoqVX5JRvze4fv/wIhJeiL+1YjaT3WuGcljFdJpjCsC0GLTMO1RQ6fdQKZbM6pGXzfe3XlNt1Cb1syhvMZpWnPouMfMnUrwxgLx+G/uUX8A/bejl+LMW04O2y820xhSAaTH4N9MhgkoPGGmC2Xdz8EMvpiRScy5Ii3KPJmF1Z82sX4CYjsm0xhSAaTHKA0jnNjbMD89+NA8efqrac9ATu6lYkpAytNyb2qmN9NHYtoy2Nju65hO3t3mh4ZkR161nclTPb1PmbXI7s7BtGiG3Rcv4q33Wtv/71VYzzkm2YFNi5HY5oUr91u1Y4Lz9n6+b/63OG9feIdY0lkZ5B8FvxMP3LfHZvAf6ecOfb18S9FE3SScx8FvDkcjRPqu8vVu0/6rfKJ1tLIhdxdTZxNZxlQCdulzvD0t1aKZX2lJO+rCbom/JPWFZqF2deK9Y0a/oT272np6n/rg99o4Fi8xMZ6aamBKlmWkqpkQ66+HzWIyqsr06mdv9PkPS9cnWbxDuErL7fTBN1kwXf1KUQhsZZ5T4m226xhjqJkJjy207UU/EoI4T+QkiJuq2xNral/BrbdafF7jgV4mnbVyS+xPHmbk+cT4NWGSC6HgRZTFrCMtOPfuyG5sHG/lpHsu+GG1mSgJKop1uxJ7C8dYi7nylYtrcJ1bZlJ3j7SCmkT/Rlv0BsEjM9DfTaS3zpucSbZapi4AXU5/M7Qbb3t7qLxEOphGnTPxKG1m/FCPXJ0I8LLrkl+MTkDhp4yT7ieJribW1r+yYUH98H5R42salg5jG19csGxsnNPWG423nxPLWWmOG5+o1j7mNRBNT14ZEK+4rRRNbWab61tqIet1mpnpbLgNgkZhYTIcKKZF7AKkkpl0eQFKTqE2y9QwnTrrtQsU+WVSL/rLCkcTZ0kbG0VVMnY3qun5ysbh6cTzMvT13XSTMva6v2Fccf1xeEL+2cRFxWZuMU/OXuWZm1GXeDmLqRKae4cWiUwuoPOZ+JPMjpvK6IKbg8DCxmI7xf6a5f43JiWnuX2PSBNklKdsZXEi6eaGi5PxU8dvuT8Zz0Tyl2VkaZ5T4XRsWL2sXfbTF+MLPRJ2trpvGQtzby4uNbU/+bu+Zn4VYa7E2ry/fFx27Map9ctuimHqf2XGxcdU+4/vg/PEsPbVz2diUxDM9T0WJZqhjzUx5mdf6TIRP4nzXbdlXUUx9m8YyL7ex4llfc3xd3r/4DVfauQyARWKUB5CGMNZLG2ySpGXFKsnWDyDJL79PrLz0WCX5WByEcAihonOaqXG7sHxa8GftNsl7uyiP4pzkAaRMjMGvJ7p2GYuw8TXIurJcipAU0/q8eX25vmI/4horwuw3G09+XAh57fF99f6qslzbaSDFsu2chYWXeDd3VieamRK8VEyCdoYeOErEsPgAkp8hu2XmKjb1AaS4bxeT/gASwfEQ8XV5f1VZri0Ai8bMxZQgkdRmqAzZDtrbj8D0yYkzaEdbxh2LnDgDsMjMhZgSeNE9GBuIaTecuNUzQ55xyiXcMYGYgoPI3IgpAGNzEMU0XVplughTqa1c5iWmJaQExBQcRCCmAAAAwEAgpgAAAMBAIKYAAADAQCCmAAAAwEAgpgAAAMBA5kZM8a8xAAAAFpW5EFO8tAEAAMDi8rr5fxFnTl3Xb1UEAAAAAElFTkSuQmCC;" parent="1" vertex="1">
                    <mxGeometry x="150" y="2160" width="467" height="103" as="geometry"/>
                </mxCell>
                <mxCell id="Foogz8reGD-KFwk75LfD-66" value="ChannelMannger#&lt;span style=&quot;font-family: &amp;quot;jetbrains mono&amp;quot;, monospace; font-size: 9.8pt;&quot;&gt;registerRMChannel&lt;/span&gt;" style="rounded=0;whiteSpace=wrap;html=1;" parent="1" vertex="1">
                    <mxGeometry x="-240" y="2370" width="240" height="70" as="geometry"/>
                </mxCell>
                <mxCell id="Foogz8reGD-KFwk75LfD-68" value="&lt;pre style=&quot;font-family: &amp;#34;jetbrains mono&amp;#34; , monospace ; font-size: 9.8pt&quot;&gt;&lt;span style=&quot;background-color: rgb(255 , 255 , 255)&quot;&gt;ChannelManager.&lt;span style=&quot;font-style: italic&quot;&gt;registerRMChannel&lt;/span&gt;&lt;span style=&quot;font-style: italic&quot;&gt;(&lt;/span&gt;message&lt;span&gt;, &lt;/span&gt;ctx.channel&lt;span style=&quot;font-style: italic&quot;&gt;())&lt;/span&gt;&lt;span&gt;;&lt;/span&gt;&lt;/span&gt;&lt;/pre&gt;" style="text;html=1;align=center;verticalAlign=middle;resizable=0;points=[];autosize=1;strokeColor=none;" parent="1" vertex="1">
                    <mxGeometry x="-325" y="2290" width="410" height="50" as="geometry"/>
                </mxCell>
            </root>
        </mxGraphModel>
    </diagram>
</mxfile>